<?xml version="1.0" encoding="utf-8"?>
<!-- Generator: Adobe Illustrator 19.0.1, SVG Export Plug-In . SVG Version: 6.00 Build 0)  -->
<svg version="1.1" xmlns="http://www.w3.org/2000/svg" xmlns:xlink="http://www.w3.org/1999/xlink" x="0px" y="0px"
	 viewBox="0 0 356 168.5" style="enable-background:new 0 0 356 168.5;" xml:space="preserve">
<style type="text/css">
	.st0{fill:#003E7E;}
	.st1{fill:url(#SVGID_3_);}
	.st2{fill:url(#SVGID_4_);}
	.st3{fill:url(#SVGID_5_);}
	.st4{fill:url(#SVGID_6_);}
	.st5{fill:url(#SVGID_7_);}
	.st6{fill:url(#SVGID_8_);}
	.st7{fill:url(#SVGID_9_);}
	.st8{fill:url(#SVGID_10_);}
	.st9{fill:url(#SVGID_11_);}
	.st10{fill:url(#SVGID_12_);}
	.st11{fill:url(#SVGID_13_);}
	.st12{fill:url(#SVGID_14_);}
	.st13{fill:url(#SVGID_15_);}
	.st14{fill:url(#SVGID_16_);}
	.st15{fill:url(#SVGID_17_);}
	.st16{fill:url(#SVGID_18_);}
	.st17{fill:url(#SVGID_19_);}
	.st18{fill:url(#SVGID_20_);}
	.st19{fill:url(#SVGID_21_);}
	.st20{fill:url(#SVGID_22_);}
	.st21{fill:url(#SVGID_23_);}
	.st22{fill:url(#SVGID_24_);}
	.st23{fill:url(#SVGID_25_);}
	.st24{fill:url(#SVGID_26_);}
	.st25{fill:url(#SVGID_27_);}
	.st26{fill:url(#SVGID_28_);}
	.st27{fill:url(#SVGID_29_);}
	.st28{fill:url(#SVGID_30_);}
	.st29{fill:url(#SVGID_31_);}
	.st30{fill:url(#SVGID_32_);}
	.st31{fill:url(#SVGID_33_);}
	.st32{fill:url(#SVGID_34_);}
	.st33{fill:url(#SVGID_35_);}
	.st34{fill:url(#SVGID_36_);}
	.st35{fill:url(#SVGID_37_);}
	.st36{fill:url(#SVGID_38_);}
	.st37{fill:url(#SVGID_39_);}
	.st38{fill:url(#SVGID_40_);}
	.st39{fill:#808285;}
</style>
<g id="Layer_2">
</g>
<g id="Layer_1">
	<g>
		<defs>
			<rect id="SVGID_1_" x="-639" y="-2081.5" width="2408" height="3438"/>
		</defs>
		<clipPath id="SVGID_2_">
			<use xlink:href="#SVGID_1_"  style="overflow:visible;"/>
		</clipPath>
		<g style="clip-path:url(#SVGID_2_);">
			<text transform="matrix(1 0 0 1 -639 -2071.5)" style="fill:#010101; font-family:'TimesNewRomanPSMT'; font-size:12px;"> </text>
		</g>
	</g>
	<g>
		<path class="st0" d="M156.3,40.3c6.5,6.4,11.6,14.5,13.4,23.5c0.1,0.6,0.2,1.2,0.3,1.7c-0.1-0.6-0.2-1.1-0.2-1.7
			c-0.3-2-0.9-3.9-1.4-5.8c0.3,0.8,0.5,1.7,0.7,2.5c-0.1-0.3-0.2-0.6-0.3-1c-0.1-0.3-0.2-0.5-0.2-0.8c-0.1-0.3-0.2-0.6-0.3-1
			c0,0,0,0,0,0c-0.7-2.2-1.6-4.4-2.6-6.4c-0.2-0.4-0.4-0.8-0.7-1.2c-4.1-7.4-10.4-13.7-17.9-17.9c0.4,0.2,0.7,0.4,1.1,0.6
			c-0.5-0.3-1-0.6-1.5-0.8c-0.1,0-0.1-0.1-0.2-0.1c-0.3-0.2-0.6-0.3-0.9-0.5c-0.4-0.2-0.8-0.4-1.2-0.6c0.2,0.1,0.3,0.1,0.5,0.2l0,0
			c-0.7-0.3-1.4-0.6-2.1-0.9c-0.3-0.1-0.7-0.3-1-0.4c-0.1,0-0.9-0.4-0.8-0.3c-0.4-0.2-0.9-0.3-1.3-0.5c-0.2-0.1-0.4-0.2-0.7-0.2
			c-0.6-0.2-1.2-0.4-1.8-0.5c-0.1,0-0.3-0.1-0.4-0.1c-0.2-0.1-0.5-0.1-0.7-0.2c-0.2,0-0.4-0.1-0.6-0.1c0.6,0.1,1.1,0.3,1.7,0.4
			c-0.9-0.2-1.9-0.4-2.8-0.6c0.1,0,0.3,0.1,0.4,0.1c-0.2,0-0.3-0.1-0.5-0.1c0,0-0.1,0-0.1,0c-0.8-0.2-1.5-0.3-2.3-0.3
			c0.3,0,0.6,0.1,0.9,0.2C141.6,29.1,149.9,34,156.3,40.3z"/>
		<path class="st0" d="M151.7,35.2c-0.3-0.2-0.6-0.4-0.9-0.7c-0.3-0.2-0.6-0.4-1-0.7c0,0,0,0,0,0c0,0,0,0,0,0
			c-0.5-0.3-1.1-0.7-1.6-1c0.8,0.5,1.7,1,2.5,1.5C151,34.7,151.4,35,151.7,35.2z"/>
		<path class="st0" d="M147.3,35.6c7.6,5.3,14,12.5,18.2,20.8c2.1,4.1,3.7,8.8,4.3,13.6c0.2,0,0.3,0,0.5,0c-0.1-2.6-0.4-5.2-1.2-7.8
			c-1.2-4.3-3-8.4-5.5-12.3c-4.8-7.7-11.7-14.1-19.8-18.3c-2.7-1.4-5.4-2.5-8.3-3.3c-1.7-0.5-3.5-0.9-5.3-1.1c-0.1,0-0.2,0-0.2,0
			c-0.2,0-0.3,0-0.5-0.1c-0.6-0.1-1.3-0.1-1.9-0.1c-0.2,0-0.4,0-0.6,0c-1.2,0-2.3,0-3.5,0h0c-0.1,0-0.1,0-0.2,0c0,0,0,0,0,0
			c-1,0.1-2,0.2-3,0.3c0.9-0.1,1.8-0.2,2.8-0.3c-0.9,0.1-1.8,0.1-2.7,0.2c-0.4,0-0.8,0.1-1.2,0.2l-0.1,0l-0.5,0.1
			c1.1-0.2,2.3-0.2,3.4-0.3C131.3,27.1,140.1,30.6,147.3,35.6z"/>
		<path class="st0" d="M88.8,67.4c-0.8,0.8-1.5,1.7-2.1,2.6c0.7,0,1.4,0,2.2,0c1-1.1,2.2-2,3.5-2.7c3.9-2.1,8.5-2.3,12.7-1.5
			c3.6,0.7,7,2.2,10.2,4.1c1.4,0,2.8,0,4.1,0c-3-2.2-6.2-4-9.7-5.3C102.7,62.3,94.4,62.2,88.8,67.4z"/>
		<path class="st0" d="M137.5,33.3c8.2,4,15.3,10.1,20.8,17.3c4.2,5.5,7.7,12.3,9.4,19.3c0.6,0,1.1,0,1.7,0
			c-0.7-4.7-2.4-9.3-4.5-13.5c-4.2-8.2-10.7-15.3-18.2-20.5c-8.6-5.9-20-10.2-30.6-7.9c-0.8,0.2-1.5,0.4-2.2,0.6l-0.1,0l-0.5,0.1
			l-0.7,0.2c-1.2,0.4-2.4,0.8-3.5,1.3c-0.2,0.1-0.3,0.1-0.5,0.2c0.8-0.3,1.6-0.6,2.4-0.8C119.8,27.2,129.4,29.4,137.5,33.3z"/>
		<path class="st0" d="M111.5,57.4C103.2,54.7,93,55,86.8,62c-2.1,2.3-3.4,5.1-4.1,8.1c0.3,0,0.7,0,1,0c0.4-1.1,0.9-2.3,1.6-3.3
			c2.3-3.8,6-6.4,10.2-7.6c4.3-1.2,8.8-0.9,13.1,0.2c6.8,1.8,13,5.6,18.1,10.6c1.3,0,2.6,0,3.9,0C125.3,64.2,118.8,59.7,111.5,57.4z
			"/>
		<path class="st0" d="M164,48.5c0-0.1-0.2-0.4-0.1-0.3c-0.1-0.2-0.2-0.3-0.3-0.5c-0.2-0.3-0.4-0.6-0.6-0.9
			c-0.1-0.2-0.3-0.4-0.4-0.6c-0.1-0.2-0.2-0.3-0.3-0.4c-0.5-0.7-1-1.3-1.5-2l0,0c-1.5-1.8-3.1-3.7-4.9-5.2c-0.6-0.6-1.3-1.1-2-1.7
			c-0.6-0.5-1.3-1-2-1.4C156.8,39,160.9,43.4,164,48.5z"/>
		<path class="st0" d="M88.9,51.3c3.5-3.1,7.9-4.9,12.6-5.5c8.8-1.1,17.8,1.9,25.3,6.5c7.2,4.4,13.3,10.5,17.8,17.6
			c1.3,0,2.6,0,3.9,0c-2.1-3.7-4.7-7.1-7.5-10.2c-6.1-6.6-13.8-12-22.4-14.9c-8.5-2.9-18.6-3.4-26.4,1.7c-2.7,1.8-5,4.2-6.7,6.9
			c-0.8,1.3-1.4,2.6-1.8,4c-0.1,0.3-0.2,0.6-0.3,0.9c0,0.1,0,0.1-0.1,0.2c-0.2,0.7-0.4,1.3-0.5,2c0,0.1-0.1,0.3-0.1,0.4
			c-0.1,0.4-0.2,0.8-0.3,1.2C83.5,58,85.6,54.1,88.9,51.3z"/>
		<path class="st0" d="M108.7,40c9.1,0.3,17.9,4,25.2,9.2c7.4,5.3,13.7,12.3,18,20.3c0.1,0.1,0.1,0.3,0.2,0.4c1.3,0,2.6,0,3.8,0
			c-2.7-5.8-6.5-11.2-10.9-15.8c-6.2-6.5-13.9-11.7-22.4-14.7c-8.4-2.9-18.3-3.6-26.4,0.8c-2.3,1.3-4.4,2.9-6.2,4.9
			c-1.7,2-2.9,4.2-4.1,6.5C90.6,43.6,99.6,39.8,108.7,40z"/>
		<path class="st0" d="M81.7,70.1c0.3-2.9,1.2-5.8,2.6-8.4c2.2-3.9,5.8-6.9,10.1-8.5c8.4-3.1,17.9-0.9,25.6,3.2
			c6.2,3.3,11.8,8,16.2,13.6c1.3,0,2.6,0,3.9,0c-0.6-0.8-1.1-1.5-1.7-2.3c-5.7-7.1-13.2-13-21.7-16.2c-8.2-3.1-18.2-4-25.9,1
			c-1,0.7-2,1.4-2.9,2.2c0,0,0,0,0,0c-4.2,3.9-6.1,9.4-6.4,15c0,0.1,0,0.2,0,0.3C81.6,70.1,81.7,70.1,81.7,70.1z"/>
		<path class="st0" d="M126.4,33.1c8.5,2.6,16.2,7.5,22.5,13.6c6.4,6.2,11.6,13.7,14.6,22.1c0.1,0.4,0.3,0.8,0.4,1.1
			c0.9,0,1.8,0,2.7,0c-0.3-1-0.6-2-0.9-3c-2.9-8.6-8.1-16.3-14.7-22.6c-6.2-6-13.8-10.8-22.1-13.3c-8.2-2.5-17.2-2.7-24.9,1.5
			c-0.8,0.5-1.6,0.9-2.4,1.5c-0.8,0.5-1.5,1-2.2,1.5c0,0-0.1,0.1-0.1,0.1c-0.1,0-0.1,0.1-0.2,0.1c-0.1,0.1-0.3,0.2-0.4,0.3
			c-0.7,0.6-1.4,1.2-2.1,1.8c0,0-0.1,0.1-0.1,0.1c1.1-0.9,2.2-1.8,3.4-2.7C107.8,30.3,117.8,30.5,126.4,33.1z"/>
		<path class="st0" d="M116,35.6c8.8,1.2,17.1,5.3,24,10.7c7.1,5.5,13.2,12.7,17.2,20.8c0.5,1,0.9,2,1.4,3c1.2,0,2.3,0,3.5,0
			c-2.2-6.1-5.6-11.8-9.8-16.8C143.9,43,131.7,34.8,118.4,33c-8.1-1.4-16.9,0.6-23.1,6.1c-0.2,0.2-0.5,0.4-0.7,0.6l-0.1,0.1
			c-0.2,0.2-0.4,0.4-0.5,0.6c-0.1,0.1-0.2,0.2-0.3,0.3c-0.7,0.8-1.4,1.5-2,2.3C97.8,36.2,107.3,34.3,116,35.6z"/>
		<path class="st0" d="M170.2,67.4C170.2,67.4,170.2,67.4,170.2,67.4c0-0.1,0-0.2,0-0.2c0,0.1,0,0.3,0,0.4
			C170.2,67.6,170.2,67.5,170.2,67.4z"/>
		<path class="st0" d="M164,48.6c0.2,0.4,0.4,0.7,0.6,1.1c0-0.1-0.1-0.1-0.1-0.2C164.4,49.2,164.2,48.9,164,48.6z"/>
		<path class="st0" d="M170.1,66.7c0-0.2,0-0.3-0.1-0.5c0,0.3,0.1,0.5,0.1,0.8C170.1,66.8,170.1,66.7,170.1,66.7z"/>
		<path class="st0" d="M170.2,67.1c0-0.1,0-0.1,0-0.2C170.2,67.1,170.2,67.3,170.2,67.1z"/>
		<path class="st0" d="M143,30.4c-0.7-0.3-1.3-0.5-2-0.8C141.7,29.9,142.4,30.1,143,30.4C143,30.4,143,30.4,143,30.4z"/>
		<path class="st0" d="M167.1,54.5c0-0.1-0.1-0.2-0.1-0.3L167.1,54.5C167.1,54.5,167.1,54.5,167.1,54.5z"/>
		<path class="st0" d="M108.6,30.5c0,0-0.1,0-0.1,0.1h0C108.5,30.5,108.6,30.5,108.6,30.5z"/>
		<path class="st0" d="M165.8,51.8c0.1,0.2,0.2,0.5,0.4,0.7C166.1,52.4,166,52.1,165.8,51.8z"/>
		<path class="st0" d="M165.6,51.4C165.6,51.4,165.6,51.4,165.6,51.4c0.1,0.2,0.2,0.3,0.2,0.4C165.7,51.7,165.7,51.5,165.6,51.4z"/>
		<path class="st0" d="M164.7,49.6c0.1,0.2,0.2,0.4,0.3,0.6c0,0.1,0.1,0.1,0.1,0.2C164.9,50.1,164.8,49.9,164.7,49.6z"/>
		<path class="st0" d="M85.6,52.7c0.1-0.3,0.3-0.6,0.4-0.9c-0.1,0.2-0.2,0.4-0.3,0.5C85.7,52.4,85.7,52.5,85.6,52.7z"/>
		<path class="st0" d="M126.8,52.3c7.2,4.4,13.3,10.5,17.8,17.6c1.3,0,2.6,0,3.9,0c-2.1-3.7-4.7-7.1-7.5-10.2
			c-6.1-6.6-13.8-12-22.4-14.9c-6.6-2.2-14.2-3-20.9-0.8c-2.1,1-4,2.3-5.6,3.9c-0.6,0.6-1.2,1.2-1.7,2c-0.1,0.1-0.1,0.2-0.2,0.3
			c3.3-2.5,7.2-3.9,11.3-4.4C110.3,44.7,119.3,47.7,126.8,52.3z"/>
		<path class="st0" d="M88.8,67.4c-0.8,0.8-1.5,1.7-2.1,2.6c0.7,0,1.4,0,2.2,0c1-1.1,2.2-2,3.5-2.7c3.9-2.1,8.5-2.3,12.7-1.5
			c3.6,0.7,7,2.2,10.2,4.1c1.4,0,2.8,0,4.1,0c-3-2.2-6.2-4-9.7-5.3C102.7,62.3,94.4,62.2,88.8,67.4z"/>
		<path class="st0" d="M95.5,59.2c4.3-1.2,8.8-0.9,13.1,0.2c6.8,1.8,13,5.6,18.1,10.6c1.3,0,2.6,0,3.9,0c-5.2-5.7-11.7-10.2-19-12.6
			C103.2,54.7,93,55,86.8,62c-0.7,0.8-1.3,1.7-1.9,2.6c-0.2,1.2-0.4,2.5-0.4,3.7c0.2-0.5,0.5-1,0.8-1.5C87.6,63,91.3,60.3,95.5,59.2
			z"/>
		<path class="st0" d="M94.4,53.2c8.4-3.1,17.9-0.9,25.6,3.2c6.2,3.3,11.8,8,16.2,13.6c1.3,0,2.6,0,3.9,0c-0.6-0.8-1.1-1.5-1.7-2.3
			c-5.7-7.1-13.2-13-21.7-16.2c-8.2-3.1-18.2-4-25.9,1c-1,0.7-2,1.4-2.9,2.2c0,0,0,0,0,0c0,0-0.1,0.1-0.1,0.1
			c-0.6,1.3-1.1,2.7-1.5,4C88.5,56.3,91.3,54.4,94.4,53.2z"/>
		
			<radialGradient id="SVGID_3_" cx="2413.1033" cy="-159.1696" r="77.4032" gradientTransform="matrix(0.7071 0.7071 -0.7071 0.7071 -1671.5222 -1543.7593)" gradientUnits="userSpaceOnUse">
			<stop  offset="0" style="stop-color:#E6E6E6"/>
			<stop  offset="0.3023" style="stop-color:#E3E3E3"/>
			<stop  offset="0.4408" style="stop-color:#DCDCDC"/>
			<stop  offset="0.546" style="stop-color:#CFCFCF"/>
			<stop  offset="0.6343" style="stop-color:#BDBDBD"/>
			<stop  offset="0.7121" style="stop-color:#A5A5A5"/>
			<stop  offset="0.7813" style="stop-color:#898989"/>
			<stop  offset="0.8448" style="stop-color:#676767"/>
			<stop  offset="0.8466" style="stop-color:#666666"/>
			<stop  offset="1" style="stop-color:#E6E6E6"/>
		</radialGradient>
		<path class="st1" d="M168.9,70c0.3,0,0.5,0,0.7,0c0.1-0.8,0.2-1.6,0.2-2.5c0-2.4-0.3-4.8-0.8-7.2c-0.1-0.3-0.1-0.5-0.2-0.8
			c-0.3-1.1-0.6-2.1-1-3.2c-0.1-0.2-0.1-0.4-0.2-0.6c-0.2-0.4-0.3-0.9-0.5-1.3c0-0.1-0.1-0.2-0.1-0.3c-0.3-0.7-0.6-1.4-1-2.2
			C168.5,57.5,170.1,64,168.9,70z"/>
		
			<radialGradient id="SVGID_4_" cx="2413.1016" cy="-159.1705" r="77.4082" gradientTransform="matrix(0.7071 0.7071 -0.7071 0.7071 -1671.5222 -1543.7593)" gradientUnits="userSpaceOnUse">
			<stop  offset="0" style="stop-color:#E6E6E6"/>
			<stop  offset="0.3023" style="stop-color:#E3E3E3"/>
			<stop  offset="0.4408" style="stop-color:#DCDCDC"/>
			<stop  offset="0.546" style="stop-color:#CFCFCF"/>
			<stop  offset="0.6343" style="stop-color:#BDBDBD"/>
			<stop  offset="0.7121" style="stop-color:#A5A5A5"/>
			<stop  offset="0.7813" style="stop-color:#898989"/>
			<stop  offset="0.8448" style="stop-color:#676767"/>
			<stop  offset="0.8466" style="stop-color:#666666"/>
			<stop  offset="1" style="stop-color:#E6E6E6"/>
		</radialGradient>
		<path class="st2" d="M106.1,37.7c-2.1,4-2.9,8.6-2.7,13c0.3,6.8,2.8,13.4,6.4,19.2c1.2,0,2.5,0,3.7,0c-0.5-0.7-1-1.5-1.4-2.2
			c-4.5-7.4-7.2-16.7-5.2-25.3c1.1-4.7,3.8-8.9,7.7-11.6c3.9-2.7,8.8-3.9,13.5-3.8c0.2,0,0.3,0,0.5,0c2.2,0.1,4.4,0.4,6.5,0.9
			c-1.3-0.3-2.6-0.5-3.8-0.7c-0.3,0-0.5-0.1-0.8-0.1c-0.3,0-0.6-0.1-0.9-0.1c-0.3,0-0.7,0-1-0.1c-0.4,0-0.7,0-1.1-0.1
			c-1.2,0-2.5,0-3.7,0c-2.5,0.2-4.9,0.6-7.2,1.5C112.1,30.3,108.4,33.5,106.1,37.7z"/>
		
			<radialGradient id="SVGID_5_" cx="2413.1021" cy="-159.1703" r="77.4095" gradientTransform="matrix(0.7071 0.7071 -0.7071 0.7071 -1671.5222 -1543.7593)" gradientUnits="userSpaceOnUse">
			<stop  offset="0" style="stop-color:#E6E6E6"/>
			<stop  offset="0.3023" style="stop-color:#E3E3E3"/>
			<stop  offset="0.4408" style="stop-color:#DCDCDC"/>
			<stop  offset="0.546" style="stop-color:#CFCFCF"/>
			<stop  offset="0.6343" style="stop-color:#BDBDBD"/>
			<stop  offset="0.7121" style="stop-color:#A5A5A5"/>
			<stop  offset="0.7813" style="stop-color:#898989"/>
			<stop  offset="0.8448" style="stop-color:#676767"/>
			<stop  offset="0.8466" style="stop-color:#666666"/>
			<stop  offset="1" style="stop-color:#E6E6E6"/>
		</radialGradient>
		<path class="st3" d="M128.7,27.6c-4.6,0.2-9.1,1.8-12.4,4.9c-3.5,3.2-5.4,7.7-5.8,12.3c-0.9,8.8,2.8,17.7,8.1,24.6
			c0.1,0.2,0.3,0.3,0.4,0.5c1.2,0,2.4,0,3.6,0c-0.5-0.5-0.9-1.1-1.4-1.7c-5.4-6.9-9.3-16-7.9-24.9c1-6.8,5.5-12.4,12.2-14.4
			c6.1-1.9,12.7-0.6,18.5,1.8c-0.2-0.1-0.4-0.2-0.6-0.3c-0.1,0-0.2-0.1-0.2-0.1c-1.4-0.6-2.8-1.1-4.2-1.5c-0.5-0.2-1-0.3-1.6-0.4
			C134.5,27.7,131.6,27.4,128.7,27.6z"/>
		
			<radialGradient id="SVGID_6_" cx="2413.1021" cy="-159.1699" r="77.4072" gradientTransform="matrix(0.7071 0.7071 -0.7071 0.7071 -1671.5222 -1543.7593)" gradientUnits="userSpaceOnUse">
			<stop  offset="0" style="stop-color:#E6E6E6"/>
			<stop  offset="0.3023" style="stop-color:#E3E3E3"/>
			<stop  offset="0.4408" style="stop-color:#DCDCDC"/>
			<stop  offset="0.546" style="stop-color:#CFCFCF"/>
			<stop  offset="0.6343" style="stop-color:#BDBDBD"/>
			<stop  offset="0.7121" style="stop-color:#A5A5A5"/>
			<stop  offset="0.7813" style="stop-color:#898989"/>
			<stop  offset="0.8448" style="stop-color:#676767"/>
			<stop  offset="0.8466" style="stop-color:#666666"/>
			<stop  offset="1" style="stop-color:#E6E6E6"/>
		</radialGradient>
		<path class="st4" d="M127.1,30.7c-4.2,1.8-7.3,5.3-8.7,9.6c-2.7,8.6,1.2,18.3,6.5,25c1.3,1.6,2.6,3.1,4.1,4.5c1.2,0,2.4,0,3.5,0
			c-2.8-2.3-5.3-5.1-7.3-8c-4.7-6.9-7.8-17.1-3.1-24.8c3.7-6.1,11.2-7.7,17.8-6.4c6.7,1.3,12.7,5.1,17.4,9.9
			c6.1,6.3,10.9,15.5,9.4,24.4c-0.3,1.8-0.9,3.5-1.8,5c0.5,0,1,0,1.6,0c2.4-6.1,1.2-13.4-1.7-19.4c-4-8.3-11.3-15.3-19.8-18.9
			c-1.6-0.7-3.2-1.2-4.8-1.6C136,29.1,131.3,29,127.1,30.7z"/>
		
			<radialGradient id="SVGID_7_" cx="2413.1021" cy="-159.1698" r="77.4048" gradientTransform="matrix(0.7071 0.7071 -0.7071 0.7071 -1671.5222 -1543.7593)" gradientUnits="userSpaceOnUse">
			<stop  offset="0" style="stop-color:#E6E6E6"/>
			<stop  offset="0.3023" style="stop-color:#E3E3E3"/>
			<stop  offset="0.4408" style="stop-color:#DCDCDC"/>
			<stop  offset="0.546" style="stop-color:#CFCFCF"/>
			<stop  offset="0.6343" style="stop-color:#BDBDBD"/>
			<stop  offset="0.7121" style="stop-color:#A5A5A5"/>
			<stop  offset="0.7813" style="stop-color:#898989"/>
			<stop  offset="0.8448" style="stop-color:#676767"/>
			<stop  offset="0.8466" style="stop-color:#666666"/>
			<stop  offset="1" style="stop-color:#E6E6E6"/>
		</radialGradient>
		<path class="st5" d="M160.5,53.8c-0.8-6.2-5.2-11.8-10.6-14.8c-2.1-1.2-4.7-2-7.3-2.1c0.7,0.3,1.4,0.7,2.2,1.1
			c2.2,0.4,4.3,1.3,6,2.4c3.6,2.3,6.5,5.7,8,9.7c0.3,0.8,0.5,1.6,0.6,2.5c0,0,0,0,0,0c0.4,0.8,0.8,1.6,1.2,2.4
			C160.6,54.5,160.5,54.1,160.5,53.8z"/>
		
			<radialGradient id="SVGID_8_" cx="2413.1013" cy="-159.1704" r="77.4074" gradientTransform="matrix(0.7071 0.7071 -0.7071 0.7071 -1671.5222 -1543.7593)" gradientUnits="userSpaceOnUse">
			<stop  offset="0" style="stop-color:#E6E6E6"/>
			<stop  offset="0.3023" style="stop-color:#E3E3E3"/>
			<stop  offset="0.4408" style="stop-color:#DCDCDC"/>
			<stop  offset="0.546" style="stop-color:#CFCFCF"/>
			<stop  offset="0.6343" style="stop-color:#BDBDBD"/>
			<stop  offset="0.7121" style="stop-color:#A5A5A5"/>
			<stop  offset="0.7813" style="stop-color:#898989"/>
			<stop  offset="0.8448" style="stop-color:#676767"/>
			<stop  offset="0.8466" style="stop-color:#666666"/>
			<stop  offset="1" style="stop-color:#E6E6E6"/>
		</radialGradient>
		<path class="st6" d="M142.4,33.7c7.4,1.3,13.9,6.4,17.8,12.6c3,4.8,5,11.8,2.6,17.2c0.1,1.1,0,2.2-0.1,3.3
			c4.5-6.6,1.4-16.2-3-22.2c-5.1-7-13.9-12.8-22.8-12c-2.2,0.2-4.3,0.9-6.1,2.1c1-0.1,2.1-0.2,3.2-0.1c-0.1,0-0.2,0.1-0.3,0.1
			C136.3,33.4,139.5,33.2,142.4,33.7z"/>
		
			<radialGradient id="SVGID_9_" cx="2413.1028" cy="-159.1743" r="77.4121" gradientTransform="matrix(0.7071 0.7071 -0.7071 0.7071 -1671.5222 -1543.7593)" gradientUnits="userSpaceOnUse">
			<stop  offset="0" style="stop-color:#E6E6E6"/>
			<stop  offset="0.2935" style="stop-color:#E3E3E3"/>
			<stop  offset="0.4281" style="stop-color:#DCDCDC"/>
			<stop  offset="0.5302" style="stop-color:#CFCFCF"/>
			<stop  offset="0.6159" style="stop-color:#BDBDBD"/>
			<stop  offset="0.6915" style="stop-color:#A5A5A5"/>
			<stop  offset="0.7586" style="stop-color:#898989"/>
			<stop  offset="0.8203" style="stop-color:#676767"/>
			<stop  offset="0.8221" style="stop-color:#666666"/>
			<stop  offset="1" style="stop-color:#E6E6E6"/>
		</radialGradient>
		<path class="st7" d="M83.6,70.1C82.7,64.7,83,59.2,85,54c0,0,0,0.1,0,0.1c-0.1,0.2-0.2,0.4-0.3,0.6c-0.4,0.9-0.7,1.9-1,2.8
			c-0.2,0.6-0.4,1.1-0.5,1.7c-0.2,0.6-0.3,1.2-0.5,1.8c-0.6,3-0.8,6-0.5,9C82.6,70.1,83.1,70.1,83.6,70.1z"/>
		
			<radialGradient id="SVGID_10_" cx="2413.0996" cy="-159.1621" r="77.3981" gradientTransform="matrix(0.7071 0.7071 -0.7071 0.7071 -1671.5222 -1543.7593)" gradientUnits="userSpaceOnUse">
			<stop  offset="0" style="stop-color:#E6E6E6"/>
			<stop  offset="0.2979" style="stop-color:#E3E3E3"/>
			<stop  offset="0.4344" style="stop-color:#DCDCDC"/>
			<stop  offset="0.5381" style="stop-color:#CFCFCF"/>
			<stop  offset="0.6251" style="stop-color:#BDBDBD"/>
			<stop  offset="0.7018" style="stop-color:#A5A5A5"/>
			<stop  offset="0.7699" style="stop-color:#898989"/>
			<stop  offset="0.8325" style="stop-color:#676767"/>
			<stop  offset="0.8344" style="stop-color:#666666"/>
			<stop  offset="1" style="stop-color:#E6E6E6"/>
		</radialGradient>
		<path class="st8" d="M81.8,70.1c-0.1-1.7-0.1-3.3,0.1-5c0,0.4-0.1,0.7-0.1,1.1c0,0.3-0.1,0.7-0.1,1c0,0.2,0,0.5-0.1,0.7
			c0,0.2,0,0.3,0,0.5c0,0.6-0.1,1.1-0.1,1.7C81.6,70.1,81.7,70.1,81.8,70.1z"/>
		
			<radialGradient id="SVGID_11_" cx="2413.0994" cy="-159.1708" r="77.4073" gradientTransform="matrix(0.7071 0.7071 -0.7071 0.7071 -1671.5222 -1543.7593)" gradientUnits="userSpaceOnUse">
			<stop  offset="0" style="stop-color:#E6E6E6"/>
			<stop  offset="0.2957" style="stop-color:#E3E3E3"/>
			<stop  offset="0.4313" style="stop-color:#DCDCDC"/>
			<stop  offset="0.5341" style="stop-color:#CFCFCF"/>
			<stop  offset="0.6205" style="stop-color:#BDBDBD"/>
			<stop  offset="0.6966" style="stop-color:#A5A5A5"/>
			<stop  offset="0.7643" style="stop-color:#898989"/>
			<stop  offset="0.8264" style="stop-color:#676767"/>
			<stop  offset="0.8282" style="stop-color:#666666"/>
			<stop  offset="1" style="stop-color:#E6E6E6"/>
		</radialGradient>
		<path class="st9" d="M84.6,70.1c0.8,0,1.7,0,2.6,0c-1.9-7.4-2-15.6,1.5-22.5c0.5-0.9,1-1.8,1.6-2.7c-0.6,0.9-1.2,1.8-1.8,2.6
			c-0.2,0.3-0.3,0.5-0.5,0.8l0,0.1c-0.3,0.6-0.7,1.2-1,1.7C83.7,56.2,83.3,63.3,84.6,70.1z"/>
		
			<radialGradient id="SVGID_12_" cx="2413.1013" cy="-159.1704" r="77.4084" gradientTransform="matrix(0.7071 0.7071 -0.7071 0.7071 -1671.5222 -1543.7593)" gradientUnits="userSpaceOnUse">
			<stop  offset="0" style="stop-color:#E6E6E6"/>
			<stop  offset="0.2092" style="stop-color:#E3E3E3"/>
			<stop  offset="0.355" style="stop-color:#DADADA"/>
			<stop  offset="0.4816" style="stop-color:#CACACA"/>
			<stop  offset="0.5972" style="stop-color:#B4B4B4"/>
			<stop  offset="0.7054" style="stop-color:#989898"/>
			<stop  offset="0.8066" style="stop-color:#767676"/>
			<stop  offset="0.8466" style="stop-color:#666666"/>
			<stop  offset="1" style="stop-color:#E6E6E6"/>
		</radialGradient>
		<path class="st10" d="M97.1,38.4c-5.9,7.3-6.3,17.3-4.1,26c0.5,1.9,1.1,3.7,1.8,5.6c1.2,0,2.4,0,3.6,0c-3.2-7.2-4.8-15.2-3.2-22.9
			c1.4-6.6,5.3-12.4,11.3-15.6c-0.7,0.3-1.4,0.7-2.1,1.1c-0.8,0.5-1.7,1-2.5,1.5C100.1,35.2,98.4,36.7,97.1,38.4z"/>
		
			<radialGradient id="SVGID_13_" cx="2413.1021" cy="-159.17" r="77.4073" gradientTransform="matrix(0.7071 0.7071 -0.7071 0.7071 -1671.5222 -1543.7593)" gradientUnits="userSpaceOnUse">
			<stop  offset="0" style="stop-color:#E6E6E6"/>
			<stop  offset="0.2957" style="stop-color:#E3E3E3"/>
			<stop  offset="0.4313" style="stop-color:#DCDCDC"/>
			<stop  offset="0.5341" style="stop-color:#CFCFCF"/>
			<stop  offset="0.6205" style="stop-color:#BDBDBD"/>
			<stop  offset="0.6966" style="stop-color:#A5A5A5"/>
			<stop  offset="0.7643" style="stop-color:#898989"/>
			<stop  offset="0.8264" style="stop-color:#676767"/>
			<stop  offset="0.8282" style="stop-color:#666666"/>
			<stop  offset="1" style="stop-color:#E6E6E6"/>
		</radialGradient>
		<path class="st11" d="M87.9,65.8c0.3,1.4,0.6,2.8,1,4.2c1.1,0,2.2,0,3.3,0c-2.3-6.5-3.2-13.6-1.7-20.3c1.1-4.9,3.6-9.4,7.3-12.7
			c-0.7,0.6-1.5,1.2-2.2,1.9c-0.3,0.3-0.6,0.6-0.9,0.8l-0.1,0.1l0,0c-0.3,0.3-0.6,0.6-0.8,0.9C87.5,47.5,86.2,57.1,87.9,65.8z"/>
		
			<radialGradient id="SVGID_14_" cx="2413.1025" cy="-159.17" r="77.4065" gradientTransform="matrix(0.7071 0.7071 -0.7071 0.7071 -1671.5222 -1543.7593)" gradientUnits="userSpaceOnUse">
			<stop  offset="0" style="stop-color:#E6E6E6"/>
			<stop  offset="0.3023" style="stop-color:#E3E3E3"/>
			<stop  offset="0.4408" style="stop-color:#DCDCDC"/>
			<stop  offset="0.546" style="stop-color:#CFCFCF"/>
			<stop  offset="0.6343" style="stop-color:#BDBDBD"/>
			<stop  offset="0.7121" style="stop-color:#A5A5A5"/>
			<stop  offset="0.7813" style="stop-color:#898989"/>
			<stop  offset="0.8448" style="stop-color:#676767"/>
			<stop  offset="0.8466" style="stop-color:#666666"/>
			<stop  offset="1" style="stop-color:#E6E6E6"/>
		</radialGradient>
		<path class="st12" d="M98,59.2c0.8,3.7,2.1,7.3,3.8,10.8c1.2,0,2.5,0,3.8,0c-4.1-7.5-6.6-16.4-4.9-25c0.8-4.2,2.7-8.1,5.6-11.2
			c2.9-3,6.5-4.9,10.5-5.9c-0.8,0.2-1.6,0.4-2.4,0.6c-1,0.3-2,0.6-3,0.9c-2.7,1-5.1,2.6-7.2,4.5C97.4,40.4,96.1,50.4,98,59.2z"/>
		
			<radialGradient id="SVGID_15_" cx="2410.2161" cy="-159.2861" r="91.8019" gradientTransform="matrix(0.7071 0.7071 -0.7071 0.7071 -1671.5222 -1543.7593)" gradientUnits="userSpaceOnUse">
			<stop  offset="0" style="stop-color:#E6E6E6"/>
			<stop  offset="0.3023" style="stop-color:#E3E3E3"/>
			<stop  offset="0.4408" style="stop-color:#DCDCDC"/>
			<stop  offset="0.546" style="stop-color:#CFCFCF"/>
			<stop  offset="0.6343" style="stop-color:#BDBDBD"/>
			<stop  offset="0.7121" style="stop-color:#A5A5A5"/>
			<stop  offset="0.7813" style="stop-color:#898989"/>
			<stop  offset="0.8448" style="stop-color:#676767"/>
			<stop  offset="0.8466" style="stop-color:#666666"/>
			<stop  offset="1" style="stop-color:#E6E6E6"/>
		</radialGradient>
		<polygon class="st13" points="160.6,54.9 160.6,54.9 160.6,54.9 		"/>
		
			<radialGradient id="SVGID_16_" cx="2413.0991" cy="-159.1749" r="77.3809" gradientTransform="matrix(0.7071 0.7071 -0.7071 0.7071 -1671.5222 -1543.7593)" gradientUnits="userSpaceOnUse">
			<stop  offset="0" style="stop-color:#E6E6E6"/>
			<stop  offset="0.3023" style="stop-color:#E3E3E3"/>
			<stop  offset="0.4408" style="stop-color:#DCDCDC"/>
			<stop  offset="0.546" style="stop-color:#CFCFCF"/>
			<stop  offset="0.6343" style="stop-color:#BDBDBD"/>
			<stop  offset="0.7121" style="stop-color:#A5A5A5"/>
			<stop  offset="0.7813" style="stop-color:#898989"/>
			<stop  offset="0.8448" style="stop-color:#676767"/>
			<stop  offset="0.8466" style="stop-color:#666666"/>
			<stop  offset="1" style="stop-color:#E6E6E6"/>
		</radialGradient>
		<path class="st14" d="M149.1,33.5c-0.1-0.1-0.2-0.1-0.4-0.2c0.2,0.1,0.3,0.2,0.5,0.3C149.2,33.5,149.2,33.5,149.1,33.5z"/>
		
			<radialGradient id="SVGID_17_" cx="2413.1165" cy="-159.2384" r="77.2106" gradientTransform="matrix(0.7071 0.7071 -0.7071 0.7071 -1671.5222 -1543.7593)" gradientUnits="userSpaceOnUse">
			<stop  offset="0" style="stop-color:#E6E6E6"/>
			<stop  offset="0.3023" style="stop-color:#E3E3E3"/>
			<stop  offset="0.4408" style="stop-color:#DCDCDC"/>
			<stop  offset="0.546" style="stop-color:#CFCFCF"/>
			<stop  offset="0.6343" style="stop-color:#BDBDBD"/>
			<stop  offset="0.7121" style="stop-color:#A5A5A5"/>
			<stop  offset="0.7813" style="stop-color:#898989"/>
			<stop  offset="0.8448" style="stop-color:#676767"/>
			<stop  offset="0.8466" style="stop-color:#666666"/>
			<stop  offset="1" style="stop-color:#E6E6E6"/>
		</radialGradient>
		<path class="st15" d="M148.7,33.2c0,0-0.1,0-0.1-0.1c0.1,0,0.1,0.1,0.2,0.1C148.7,33.2,148.7,33.2,148.7,33.2z"/>
		
			<radialGradient id="SVGID_18_" cx="2413.1194" cy="-159.1255" r="77.6025" gradientTransform="matrix(0.7071 0.7071 -0.7071 0.7071 -1671.5222 -1543.7593)" gradientUnits="userSpaceOnUse">
			<stop  offset="0" style="stop-color:#E6E6E6"/>
			<stop  offset="0.3023" style="stop-color:#E3E3E3"/>
			<stop  offset="0.4408" style="stop-color:#DCDCDC"/>
			<stop  offset="0.546" style="stop-color:#CFCFCF"/>
			<stop  offset="0.6343" style="stop-color:#BDBDBD"/>
			<stop  offset="0.7121" style="stop-color:#A5A5A5"/>
			<stop  offset="0.7813" style="stop-color:#898989"/>
			<stop  offset="0.8448" style="stop-color:#676767"/>
			<stop  offset="0.8466" style="stop-color:#666666"/>
			<stop  offset="1" style="stop-color:#E6E6E6"/>
		</radialGradient>
		<path class="st16" d="M147.4,32.4c-0.1,0-0.1-0.1-0.2-0.1c0.2,0.1,0.3,0.2,0.5,0.3C147.6,32.6,147.5,32.5,147.4,32.4z"/>
		
			<radialGradient id="SVGID_19_" cx="2413.1003" cy="-159.0965" r="77.8086" gradientTransform="matrix(0.7071 0.7071 -0.7071 0.7071 -1671.5222 -1543.7593)" gradientUnits="userSpaceOnUse">
			<stop  offset="0" style="stop-color:#E6E6E6"/>
			<stop  offset="0.3023" style="stop-color:#E3E3E3"/>
			<stop  offset="0.4408" style="stop-color:#DCDCDC"/>
			<stop  offset="0.546" style="stop-color:#CFCFCF"/>
			<stop  offset="0.6343" style="stop-color:#BDBDBD"/>
			<stop  offset="0.7121" style="stop-color:#A5A5A5"/>
			<stop  offset="0.7813" style="stop-color:#898989"/>
			<stop  offset="0.8448" style="stop-color:#676767"/>
			<stop  offset="0.8466" style="stop-color:#666666"/>
			<stop  offset="1" style="stop-color:#E6E6E6"/>
		</radialGradient>
		<path class="st17" d="M156.7,39.3c-0.5-0.5-1.1-1-1.7-1.5c0,0,0,0,0,0C155.6,38.3,156.2,38.8,156.7,39.3
			C156.7,39.3,156.7,39.3,156.7,39.3z"/>
		
			<radialGradient id="SVGID_20_" cx="2413.0886" cy="-159.1848" r="77.3204" gradientTransform="matrix(0.7071 0.7071 -0.7071 0.7071 -1671.5222 -1543.7593)" gradientUnits="userSpaceOnUse">
			<stop  offset="0" style="stop-color:#E6E6E6"/>
			<stop  offset="0.3023" style="stop-color:#E3E3E3"/>
			<stop  offset="0.4408" style="stop-color:#DCDCDC"/>
			<stop  offset="0.546" style="stop-color:#CFCFCF"/>
			<stop  offset="0.6343" style="stop-color:#BDBDBD"/>
			<stop  offset="0.7121" style="stop-color:#A5A5A5"/>
			<stop  offset="0.7813" style="stop-color:#898989"/>
			<stop  offset="0.8448" style="stop-color:#676767"/>
			<stop  offset="0.8466" style="stop-color:#666666"/>
			<stop  offset="1" style="stop-color:#E6E6E6"/>
		</radialGradient>
		<path class="st18" d="M146.9,32.2c-0.2-0.1-0.4-0.2-0.6-0.3c0.3,0.1,0.6,0.3,0.8,0.4C147.1,32.3,147,32.2,146.9,32.2z"/>
		
			<radialGradient id="SVGID_21_" cx="2413.0156" cy="-159.0244" r="77.2126" gradientTransform="matrix(0.7071 0.7071 -0.7071 0.7071 -1671.5222 -1543.7593)" gradientUnits="userSpaceOnUse">
			<stop  offset="0" style="stop-color:#E6E6E6"/>
			<stop  offset="0.3023" style="stop-color:#E3E3E3"/>
			<stop  offset="0.4408" style="stop-color:#DCDCDC"/>
			<stop  offset="0.546" style="stop-color:#CFCFCF"/>
			<stop  offset="0.6343" style="stop-color:#BDBDBD"/>
			<stop  offset="0.7121" style="stop-color:#A5A5A5"/>
			<stop  offset="0.7813" style="stop-color:#898989"/>
			<stop  offset="0.8448" style="stop-color:#676767"/>
			<stop  offset="0.8466" style="stop-color:#666666"/>
			<stop  offset="1" style="stop-color:#E6E6E6"/>
		</radialGradient>
		<path class="st19" d="M81.9,65c0,0,0,0.1,0,0.1C81.9,65.1,81.9,65,81.9,65C82,65,81.9,65,81.9,65z"/>
		
			<radialGradient id="SVGID_22_" cx="2412.6028" cy="-159.1696" r="79.1004" gradientTransform="matrix(0.7071 0.7071 -0.7071 0.7071 -1671.5222 -1543.7593)" gradientUnits="userSpaceOnUse">
			<stop  offset="0" style="stop-color:#E6E6E6"/>
			<stop  offset="0.3023" style="stop-color:#E3E3E3"/>
			<stop  offset="0.4408" style="stop-color:#DCDCDC"/>
			<stop  offset="0.546" style="stop-color:#CFCFCF"/>
			<stop  offset="0.6343" style="stop-color:#BDBDBD"/>
			<stop  offset="0.7121" style="stop-color:#A5A5A5"/>
			<stop  offset="0.7813" style="stop-color:#898989"/>
			<stop  offset="0.8448" style="stop-color:#676767"/>
			<stop  offset="0.8466" style="stop-color:#666666"/>
			<stop  offset="1" style="stop-color:#E6E6E6"/>
		</radialGradient>
		<path class="st20" d="M162.7,66.8C162.7,66.8,162.7,66.8,162.7,66.8c0,0-0.1,0.1-0.1,0.2C162.6,66.9,162.6,66.9,162.7,66.8z"/>
		
			<radialGradient id="SVGID_23_" cx="2412.8523" cy="-159.1715" r="76.5585" gradientTransform="matrix(0.7071 0.7071 -0.7071 0.7071 -1671.5222 -1543.7593)" gradientUnits="userSpaceOnUse">
			<stop  offset="0" style="stop-color:#E6E6E6"/>
			<stop  offset="0.3023" style="stop-color:#E3E3E3"/>
			<stop  offset="0.4408" style="stop-color:#DCDCDC"/>
			<stop  offset="0.546" style="stop-color:#CFCFCF"/>
			<stop  offset="0.6343" style="stop-color:#BDBDBD"/>
			<stop  offset="0.7121" style="stop-color:#A5A5A5"/>
			<stop  offset="0.7813" style="stop-color:#898989"/>
			<stop  offset="0.8448" style="stop-color:#676767"/>
			<stop  offset="0.8466" style="stop-color:#666666"/>
			<stop  offset="1" style="stop-color:#E6E6E6"/>
		</radialGradient>
		<path class="st21" d="M130.4,34.9c0.1-0.1,0.2-0.2,0.3-0.2c0,0,0,0,0,0C130.6,34.7,130.5,34.8,130.4,34.9z"/>
		
			<radialGradient id="SVGID_24_" cx="2413.2751" cy="-159.1697" r="77.5897" gradientTransform="matrix(0.7071 0.7071 -0.7071 0.7071 -1671.5222 -1543.7593)" gradientUnits="userSpaceOnUse">
			<stop  offset="0" style="stop-color:#E6E6E6"/>
			<stop  offset="0.3023" style="stop-color:#E3E3E3"/>
			<stop  offset="0.4408" style="stop-color:#DCDCDC"/>
			<stop  offset="0.546" style="stop-color:#CFCFCF"/>
			<stop  offset="0.6343" style="stop-color:#BDBDBD"/>
			<stop  offset="0.7121" style="stop-color:#A5A5A5"/>
			<stop  offset="0.7813" style="stop-color:#898989"/>
			<stop  offset="0.8448" style="stop-color:#676767"/>
			<stop  offset="0.8466" style="stop-color:#666666"/>
			<stop  offset="1" style="stop-color:#E6E6E6"/>
		</radialGradient>
		<path class="st22" d="M90.9,44c-0.1,0.1-0.1,0.2-0.2,0.3C90.8,44.2,90.9,44,90.9,44C91,43.9,91,44,90.9,44z"/>
		
			<radialGradient id="SVGID_25_" cx="2412.9697" cy="-159.2453" r="77.3341" gradientTransform="matrix(0.7071 0.7071 -0.7071 0.7071 -1671.5222 -1543.7593)" gradientUnits="userSpaceOnUse">
			<stop  offset="0" style="stop-color:#E6E6E6"/>
			<stop  offset="0.3023" style="stop-color:#E3E3E3"/>
			<stop  offset="0.4408" style="stop-color:#DCDCDC"/>
			<stop  offset="0.546" style="stop-color:#CFCFCF"/>
			<stop  offset="0.6343" style="stop-color:#BDBDBD"/>
			<stop  offset="0.7121" style="stop-color:#A5A5A5"/>
			<stop  offset="0.7813" style="stop-color:#898989"/>
			<stop  offset="0.8448" style="stop-color:#676767"/>
			<stop  offset="0.8466" style="stop-color:#666666"/>
			<stop  offset="1" style="stop-color:#E6E6E6"/>
		</radialGradient>
		<path class="st23" d="M90.6,44.4c0-0.1,0.1-0.1,0.1-0.2C90.7,44.3,90.6,44.4,90.6,44.4z"/>
		
			<radialGradient id="SVGID_26_" cx="2413.1411" cy="-159.1652" r="77.4676" gradientTransform="matrix(0.7071 0.7071 -0.7071 0.7071 -1671.5222 -1543.7593)" gradientUnits="userSpaceOnUse">
			<stop  offset="0" style="stop-color:#E6E6E6"/>
			<stop  offset="0.3023" style="stop-color:#E3E3E3"/>
			<stop  offset="0.4408" style="stop-color:#DCDCDC"/>
			<stop  offset="0.546" style="stop-color:#CFCFCF"/>
			<stop  offset="0.6343" style="stop-color:#BDBDBD"/>
			<stop  offset="0.7121" style="stop-color:#A5A5A5"/>
			<stop  offset="0.7813" style="stop-color:#898989"/>
			<stop  offset="0.8448" style="stop-color:#676767"/>
			<stop  offset="0.8466" style="stop-color:#666666"/>
			<stop  offset="1" style="stop-color:#E6E6E6"/>
		</radialGradient>
		<path class="st24" d="M106.5,31.4C106.5,31.4,106.5,31.4,106.5,31.4c0.1,0,0.3-0.1,0.4-0.2C106.8,31.3,106.7,31.3,106.5,31.4z"/>
		
			<linearGradient id="SVGID_27_" gradientUnits="userSpaceOnUse" x1="2434.3008" y1="-165.6739" x2="2434.3008" y2="-95.4127" gradientTransform="matrix(0.7071 0.7071 -0.7071 0.7071 -1671.5222 -1543.7593)">
			<stop  offset="0" style="stop-color:#FFFFFF"/>
			<stop  offset="2.208318e-002" style="stop-color:#FCFCFC"/>
			<stop  offset="0.164" style="stop-color:#EAEAEA"/>
			<stop  offset="0.3165" style="stop-color:#E0E0E0"/>
			<stop  offset="0.4975" style="stop-color:#DCDCDC"/>
			<stop  offset="1" style="stop-color:#B3B3B3"/>
		</linearGradient>
		<path class="st25" d="M160.3,67c-1.6,1.5-3.5,2.5-5.4,2.9c1.5,0,3.1,0,4.6,0c0.5-0.4,1.1-0.8,1.5-1.2l0,0c0.6-0.6,1.2-1.3,1.7-1.9
			c0.2-1.1,0.2-2.2,0.1-3.3C162.2,64.8,161.4,66,160.3,67L160.3,67z"/>
		
			<linearGradient id="SVGID_28_" gradientUnits="userSpaceOnUse" x1="2413.0847" y1="-165.674" x2="2413.0847" y2="-95.4125" gradientTransform="matrix(0.7071 0.7071 -0.7071 0.7071 -1671.5222 -1543.7593)">
			<stop  offset="0" style="stop-color:#FFFFFF"/>
			<stop  offset="2.208318e-002" style="stop-color:#FCFCFC"/>
			<stop  offset="0.164" style="stop-color:#EAEAEA"/>
			<stop  offset="0.3165" style="stop-color:#E0E0E0"/>
			<stop  offset="0.4975" style="stop-color:#DCDCDC"/>
			<stop  offset="1" style="stop-color:#B3B3B3"/>
		</linearGradient>
		<path class="st26" d="M134.5,52.8c1.9,3.9,5,7.2,8.8,9.4c3.4,2,7.8,3.1,11.7,1.8c3.9-1.4,5.8-5.2,5.7-9.1
			c-0.4-0.8-0.7-1.6-1.2-2.4c0.5,3.2-0.1,6.7-2.8,8.8c-3.4,2.6-8.2,1.9-11.8,0.1c-4.3-2.1-8-6.1-9.6-10.6c-1.6-4.5-1-10.4,4-12.4
			c1.8-0.7,3.7-0.8,5.6-0.5c-0.7-0.4-1.4-0.8-2.2-1.1c-3.5-0.2-6.9,1-8.7,4.5C132,44.9,132.8,49.3,134.5,52.8z"/>
		
			<linearGradient id="SVGID_29_" gradientUnits="userSpaceOnUse" x1="2409.0608" y1="-165.675" x2="2409.0608" y2="-95.4106" gradientTransform="matrix(0.7071 0.7071 -0.7071 0.7071 -1671.5222 -1543.7593)">
			<stop  offset="0" style="stop-color:#FFFFFF"/>
			<stop  offset="2.208318e-002" style="stop-color:#FCFCFC"/>
			<stop  offset="0.164" style="stop-color:#EAEAEA"/>
			<stop  offset="0.3165" style="stop-color:#E0E0E0"/>
			<stop  offset="0.4975" style="stop-color:#DCDCDC"/>
			<stop  offset="1" style="stop-color:#B3B3B3"/>
		</linearGradient>
		<path class="st27" d="M142.2,69.9c2.1,0,4.1,0,6.2,0c-4.2-0.8-8.3-3-11.3-5.5c-6.4-5.2-12-14.6-9.3-23.1c1-2.9,3-5.4,5.9-6.7
			c0.1,0,0.2-0.1,0.3-0.1c-1.1-0.1-2.2,0-3.2,0.1c-1.9,1.2-3.4,3-4.4,5.2c-1.7,4-1.3,8.6,0,12.7C128.9,60,134.9,66.6,142.2,69.9z"/>
		
			<linearGradient id="SVGID_30_" gradientUnits="userSpaceOnUse" x1="2413.1331" y1="-165.6737" x2="2413.1331" y2="-95.4121" gradientTransform="matrix(0.7071 0.7071 -0.7071 0.7071 -1671.5222 -1543.7593)">
			<stop  offset="0" style="stop-color:#FFFFFF"/>
			<stop  offset="2.208318e-002" style="stop-color:#FCFCFC"/>
			<stop  offset="0.164" style="stop-color:#EAEAEA"/>
			<stop  offset="0.3165" style="stop-color:#E0E0E0"/>
			<stop  offset="0.4975" style="stop-color:#DCDCDC"/>
			<stop  offset="1" style="stop-color:#B3B3B3"/>
		</linearGradient>
		<path class="st28" d="M140.5,45.7c-0.8,3.4,1.4,7,4,9c2.4,2,6.7,3.5,9.3,1c1.6-1.1,1.6-3.8,1.2-5.4c-0.5-2.3-2-4.3-3.8-5.8
			c-1.7-1.4-3.8-2.4-6-2.4C143,42.1,141,43.5,140.5,45.7z M145.6,43c3.5-0.1,6.8,2.7,8.1,5.8c0.6,1.5,0.9,3.2,0.3,4.7
			c-0.7,1.6-2.2,2.4-3.9,2.4c-3.4,0-6.6-2.6-8-5.5c-0.6-1.3-1-2.9-0.6-4.4C142.1,44.1,143.7,43,145.6,43z"/>
		
			<radialGradient id="SVGID_31_" cx="2413.8271" cy="-164.0884" r="85.3174" gradientTransform="matrix(0.7071 0.7071 -0.7071 0.7071 -1671.5222 -1543.7593)" gradientUnits="userSpaceOnUse">
			<stop  offset="0" style="stop-color:#E6E6E6"/>
			<stop  offset="0.3437" style="stop-color:#E3E3E3"/>
			<stop  offset="0.5013" style="stop-color:#DCDCDC"/>
			<stop  offset="0.6208" style="stop-color:#CFCFCF"/>
			<stop  offset="0.7213" style="stop-color:#BDBDBD"/>
			<stop  offset="0.8087" style="stop-color:#A6A6A6"/>
			<stop  offset="0.8466" style="stop-color:#999999"/>
			<stop  offset="1" style="stop-color:#E6E6E6"/>
		</radialGradient>
		<path class="st29" d="M144.7,37.9c2.2,0.4,4.3,1.3,6,2.4c3.6,2.3,6.5,5.7,8,9.7c0.3,0.8,0.5,1.6,0.6,2.5c0,0,0,0,0,0
			c0.4,0.8,0.8,1.6,1.2,2.4c0-0.4,0-0.7-0.1-1.1c-0.8-6.2-5.2-11.8-10.6-14.8c-2.1-1.2-4.7-2-7.3-2.1
			C143.3,37.1,144,37.5,144.7,37.9z"/>
		
			<radialGradient id="SVGID_32_" cx="2413.8232" cy="-164.0889" r="85.3348" gradientTransform="matrix(0.7071 0.7071 -0.7071 0.7071 -1671.5222 -1543.7593)" gradientUnits="userSpaceOnUse">
			<stop  offset="0" style="stop-color:#E6E6E6"/>
			<stop  offset="0.3437" style="stop-color:#E3E3E3"/>
			<stop  offset="0.5013" style="stop-color:#DCDCDC"/>
			<stop  offset="0.6208" style="stop-color:#CFCFCF"/>
			<stop  offset="0.7213" style="stop-color:#BDBDBD"/>
			<stop  offset="0.8087" style="stop-color:#A6A6A6"/>
			<stop  offset="0.8466" style="stop-color:#999999"/>
			<stop  offset="1" style="stop-color:#E6E6E6"/>
		</radialGradient>
		<path class="st30" d="M164.7,56.3c-0.5-1.2-1-2.4-1.6-3.6c1.1,3.7,1.2,7.6-0.3,10.9c0,0,0-0.1,0.1-0.1c0.1,1.1,0,2.2-0.1,3.3
			C164.8,63.7,165.2,60,164.7,56.3z"/>
		
			<radialGradient id="SVGID_33_" cx="2413.8362" cy="-164.0884" r="85.2939" gradientTransform="matrix(0.7071 0.7071 -0.7071 0.7071 -1671.5222 -1543.7593)" gradientUnits="userSpaceOnUse">
			<stop  offset="0" style="stop-color:#E6E6E6"/>
			<stop  offset="0.3437" style="stop-color:#E3E3E3"/>
			<stop  offset="0.5013" style="stop-color:#DCDCDC"/>
			<stop  offset="0.6208" style="stop-color:#CFCFCF"/>
			<stop  offset="0.7213" style="stop-color:#BDBDBD"/>
			<stop  offset="0.8087" style="stop-color:#A6A6A6"/>
			<stop  offset="0.8466" style="stop-color:#999999"/>
			<stop  offset="1" style="stop-color:#E6E6E6"/>
		</radialGradient>
		<path class="st31" d="M166.6,70c0.3-0.7,0.5-1.5,0.7-2.3c-0.1-1.1-0.2-2.2-0.4-3.3c0,0.2,0,0.4-0.1,0.6c-0.3,1.8-0.9,3.5-1.8,5
			C165.6,70,166.1,70,166.6,70z"/>
		
			<radialGradient id="SVGID_34_" cx="2413.8281" cy="-164.0885" r="85.3266" gradientTransform="matrix(0.7071 0.7071 -0.7071 0.7071 -1671.5222 -1543.7593)" gradientUnits="userSpaceOnUse">
			<stop  offset="0" style="stop-color:#E6E6E6"/>
			<stop  offset="0.3437" style="stop-color:#E3E3E3"/>
			<stop  offset="0.5013" style="stop-color:#DCDCDC"/>
			<stop  offset="0.6208" style="stop-color:#CFCFCF"/>
			<stop  offset="0.7213" style="stop-color:#BDBDBD"/>
			<stop  offset="0.8087" style="stop-color:#A6A6A6"/>
			<stop  offset="0.8466" style="stop-color:#999999"/>
			<stop  offset="1" style="stop-color:#E6E6E6"/>
		</radialGradient>
		<path class="st32" d="M133.9,34.5c-0.1,0-0.2,0.1-0.3,0.1c2.7-1.3,5.8-1.4,8.8-0.9c0.7,0.1,1.4,0.3,2,0.5
			c-1.2-0.6-2.3-1.1-3.5-1.6c-1.4-0.2-2.7-0.2-4.1-0.1c-2.2,0.2-4.3,0.9-6.1,2.1C131.7,34.5,132.8,34.5,133.9,34.5z"/>
		
			<radialGradient id="SVGID_35_" cx="2413.8271" cy="-164.0893" r="85.3251" gradientTransform="matrix(0.7071 0.7071 -0.7071 0.7071 -1671.5222 -1543.7593)" gradientUnits="userSpaceOnUse">
			<stop  offset="0" style="stop-color:#DFDFDF"/>
			<stop  offset="0.3514" style="stop-color:#DDDDDD"/>
			<stop  offset="0.5125" style="stop-color:#D6D6D6"/>
			<stop  offset="0.6348" style="stop-color:#C9C9C9"/>
			<stop  offset="0.7375" style="stop-color:#B7B7B7"/>
			<stop  offset="0.8269" style="stop-color:#9F9F9F"/>
			<stop  offset="0.8466" style="stop-color:#999999"/>
			<stop  offset="1" style="stop-color:#FCFCFC"/>
		</radialGradient>
		<path class="st33" d="M118.5,69.4c0.1,0.2,0.3,0.3,0.4,0.5c1.2,0,2.4,0,3.6,0c-0.5-0.5-0.9-1.1-1.4-1.7c-5.4-6.9-9.3-16-7.9-24.9
			c0.9-5.9,4.4-10.9,9.6-13.4c-1.3,0.1-2.5,0.3-3.8,0.5c-1,0.6-1.9,1.3-2.8,2.1c-3.5,3.2-5.4,7.7-5.8,12.3
			C109.6,53.6,113.2,62.5,118.5,69.4z"/>
		
			<radialGradient id="SVGID_36_" cx="2413.8264" cy="-164.0883" r="85.3221" gradientTransform="matrix(0.7071 0.7071 -0.7071 0.7071 -1671.5222 -1543.7593)" gradientUnits="userSpaceOnUse">
			<stop  offset="0" style="stop-color:#E6E6E6"/>
			<stop  offset="0.3437" style="stop-color:#E3E3E3"/>
			<stop  offset="0.5013" style="stop-color:#DCDCDC"/>
			<stop  offset="0.6208" style="stop-color:#CFCFCF"/>
			<stop  offset="0.7213" style="stop-color:#BDBDBD"/>
			<stop  offset="0.8087" style="stop-color:#A6A6A6"/>
			<stop  offset="0.8466" style="stop-color:#999999"/>
			<stop  offset="1" style="stop-color:#E6E6E6"/>
		</radialGradient>
		<path class="st34" d="M118.4,40.4c-2.7,8.6,1.2,18.3,6.5,25c1.3,1.6,2.6,3.1,4.1,4.5c1.2,0,2.4,0,3.5,0c-2.8-2.3-5.3-5.1-7.3-8
			c-4.7-6.9-7.8-17.1-3.1-24.8c2.4-4,6.4-6,10.8-6.6c-1.2-0.2-2.4-0.4-3.6-0.5c-0.8,0.2-1.6,0.4-2.4,0.8
			C122.9,32.5,119.8,36,118.4,40.4z"/>
		
			<radialGradient id="SVGID_37_" cx="2413.8279" cy="-164.0871" r="85.3188" gradientTransform="matrix(0.7071 0.7071 -0.7071 0.7071 -1671.5222 -1543.7593)" gradientUnits="userSpaceOnUse">
			<stop  offset="0" style="stop-color:#E6E6E6"/>
			<stop  offset="0.1244" style="stop-color:#E0E0E0"/>
			<stop  offset="0.2856" style="stop-color:#D0D0D0"/>
			<stop  offset="0.467" style="stop-color:#B5B5B5"/>
			<stop  offset="0.6618" style="stop-color:#909090"/>
			<stop  offset="0.8466" style="stop-color:#666666"/>
			<stop  offset="1" style="stop-color:#E6E6E6"/>
		</radialGradient>
		<path class="st35" d="M101.8,70c1.2,0,2.5,0,3.8,0c-4.1-7.5-6.6-16.4-4.9-25c0.7-3.4,2-6.6,4.1-9.3c-0.1,0.1-0.3,0.1-0.4,0.2
			c-0.7,0.6-1.3,1.1-1.9,1.7c-1.6,1.6-2.9,3.4-3.9,5.4c-1.7,5.1-1.7,10.9-0.6,16.2C98.8,63,100.1,66.6,101.8,70z"/>
		
			<radialGradient id="SVGID_38_" cx="2413.8271" cy="-164.0887" r="85.322" gradientTransform="matrix(0.7071 0.7071 -0.7071 0.7071 -1671.5222 -1543.7593)" gradientUnits="userSpaceOnUse">
			<stop  offset="0" style="stop-color:#E6E6E6"/>
			<stop  offset="0.1621" style="stop-color:#E2E2E2"/>
			<stop  offset="0.3108" style="stop-color:#D7D7D7"/>
			<stop  offset="0.4543" style="stop-color:#C4C4C4"/>
			<stop  offset="0.5945" style="stop-color:#AAAAAA"/>
			<stop  offset="0.731" style="stop-color:#898989"/>
			<stop  offset="0.8466" style="stop-color:#666666"/>
			<stop  offset="1" style="stop-color:#E6E6E6"/>
		</radialGradient>
		<path class="st36" d="M103.5,50.8c0.3,6.8,2.8,13.4,6.4,19.2c1.2,0,2.5,0,3.7,0c-0.5-0.7-1-1.5-1.4-2.2
			c-4.5-7.4-7.2-16.7-5.2-25.3c1-4.1,3.2-7.9,6.4-10.6c-1.3,0.4-2.7,0.9-3.9,1.5c-1.3,1.3-2.4,2.8-3.3,4.5
			C104,41.7,103.3,46.3,103.5,50.8z"/>
		
			<radialGradient id="SVGID_39_" cx="2413.5693" cy="-164.0966" r="84.4526" gradientTransform="matrix(0.7071 0.7071 -0.7071 0.7071 -1671.5222 -1543.7593)" gradientUnits="userSpaceOnUse">
			<stop  offset="0" style="stop-color:#E6E6E6"/>
			<stop  offset="0.3437" style="stop-color:#E3E3E3"/>
			<stop  offset="0.5013" style="stop-color:#DCDCDC"/>
			<stop  offset="0.6208" style="stop-color:#CFCFCF"/>
			<stop  offset="0.7213" style="stop-color:#BDBDBD"/>
			<stop  offset="0.8087" style="stop-color:#A6A6A6"/>
			<stop  offset="0.8466" style="stop-color:#999999"/>
			<stop  offset="1" style="stop-color:#E6E6E6"/>
		</radialGradient>
		<path class="st37" d="M130.7,34.6c-0.1,0.1-0.2,0.2-0.3,0.2C130.5,34.8,130.6,34.7,130.7,34.6C130.7,34.6,130.7,34.6,130.7,34.6z"
			/>
		
			<radialGradient id="SVGID_40_" cx="2411.1047" cy="-164.108" r="104.432" gradientTransform="matrix(0.7071 0.7071 -0.7071 0.7071 -1671.5222 -1543.7593)" gradientUnits="userSpaceOnUse">
			<stop  offset="0" style="stop-color:#E6E6E6"/>
			<stop  offset="0.3437" style="stop-color:#E3E3E3"/>
			<stop  offset="0.5013" style="stop-color:#DCDCDC"/>
			<stop  offset="0.6208" style="stop-color:#CFCFCF"/>
			<stop  offset="0.7213" style="stop-color:#BDBDBD"/>
			<stop  offset="0.8087" style="stop-color:#A6A6A6"/>
			<stop  offset="0.8466" style="stop-color:#999999"/>
			<stop  offset="1" style="stop-color:#E6E6E6"/>
		</radialGradient>
		<polygon class="st38" points="160.6,54.9 160.6,54.9 160.6,54.9 		"/>
	</g>
	<path class="st0" d="M73.9,71.9c-3.7-4-7.6-4.4-9.2-4.4c-4.5,0-6.6,3.3-6.6,6.2c0,2.9,1.5,4.5,4.5,7.5l1.6,1.6
		c2.4,2.3,5.9,5.8,5.9,12.1c0,7.7-5.4,16.3-18,16.3c-3.2,0-9.2-0.7-14.7-3.7L40.1,97c2.9,2.6,6.5,4.6,10.7,4.6c5.4,0,7.7-3.7,7.7-7
		c0-3.1-1.8-5-4.6-7.5c-3.7-3.3-7.3-6.7-7.3-13.1c0-7.5,5.5-15.7,16.6-15.7c2.6,0,7.3,0.4,12.9,3.5L73.9,71.9z"/>
	<path class="st0" d="M115.2,74.8L91.4,114c-3.3,5.2-6.5,10.4-15.7,10.4c-3.1,0-5.2-0.6-6.6-1.1l4.3-7.5c0.8,0.1,1.7,0.3,2.4,0.3
		c0.6,0,1.7-0.1,2.6-0.5c1.5-0.6,2.7-1.9,3.5-3.3c0.3-0.4,1.2-2.5,1.2-2.6l-3.6-34.9h10.4l1.4,23.8l12.2-23.8H115.2z"/>
	<path class="st0" d="M163.1,109.8h-10.3l4.7-19.3c0.6-2.3,0.8-3.7,0.8-4.7c0-2.8-1.9-3.9-3.8-3.9c-1.2,0-3.3,0.4-5.6,2.4
		c-0.1,0.9-0.2,1.5-1.3,6.5l-4.6,19h-10.3l4.7-19.3c0.4-1.9,0.8-3.5,0.8-4.7c0-2.6-1.6-3.9-3.6-3.9c-1.9,0-3.7,1-5.4,2.2l-6.2,25.7
		h-10.1l8.4-35h10.2l-1.7,7.2l6.4-7.3c1.6-0.5,3.3-0.9,5.3-0.9c2.6,0,5.3,0.9,6.7,3.3c1.1,1.8,1.1,3.8,1.1,5.1l6.6-7.5
		c1.3-0.4,3.3-0.9,5.3-0.9c4.9,0,8.1,3.1,8.1,7.9c0,1.9-0.6,4.3-1,5.8L163.1,109.8z"/>
	<path class="st0" d="M187.6,95.4c-0.6,3-0.7,3.3-0.7,4c0,1.9,1.2,3.5,4,3.5c0.8,0,4-0.5,4.4-0.6c0.3-0.1,0.5-0.1,0.8-0.2l-6.7,7.8
		c-1.3,0.4-2.7,0.9-4.5,0.9c-5.3,0-8.6-3.5-8.6-8.4c0-1.6,0.4-3.3,0.7-4.5l3.6-14.8h-4.4l5.6-8.2h0.7l1.2-4.8l11.1-4.5l-2.3,9.3h6.8
		l-2,8.2h-6.8L187.6,95.4z"/>
	<path class="st0" d="M213.6,87.9c0.4-1.1,1.3-4.1,4.1-5.9c1.2-0.7,2.4-1.1,3.6-1.1c2.2,0,5,1.2,5.2,5.3c0.1,0.7,0,1.1,0,1.6H213.6z
		 M235.3,93.7c0.4-1.9,0.7-3.5,0.7-5.8c0-8.5-5.5-14.1-14.4-14.1c-12.5,0-19.5,10.6-19.5,20.4c0,5.2,2,9.7,4.9,12.5
		c4.1,3.8,9.5,4.1,12,4.1c3.6,0,5.8-0.6,7.1-0.9l7.5-8.8c-3.6,1.3-7.3,2.3-11,2.3c-2.6,0-6.8-0.4-9.4-5.7c-0.8-1.7-0.9-3.2-0.9-4
		H235.3z"/>
	<path class="st0" d="M270.3,84.5c-1.5-1.2-3.7-3.1-7.4-3.1c-7,0-10.4,7.2-10.4,12.9c0,4.2,1.8,8.9,8.7,8.9c2.8,0,5.3-0.7,7.4-1.5
		c0.4-0.1,0.7-0.2,1-0.4l-7.4,8.7c-1.3,0.4-2.6,0.7-5.1,0.7c-9.4,0-15.1-6.5-15.1-15.6c0-10.1,6.7-21.3,19.8-21.3
		c1.9,0,5.9,0.2,10.4,2.2L270.3,84.5z"/>
	<path class="st0" d="M303.9,109.8h-10l4.5-18.6c0.4-1.8,0.8-4,0.8-5c0-2.8-2-4.5-4.4-4.5c-2.4,0-4.9,1.4-5.8,2l-6.3,26h-10.2
		l12.2-50.1h10.1l-5.2,21.9l6.3-6.8c1.3-0.4,3.3-1,5.6-1c5.6,0,8.8,3.6,8.8,8.4c0,1.5-0.6,4.1-1,6.2L303.9,109.8z"/>
	<path class="st39" d="M111.4,120.3c-0.6-0.4-2.2-1.3-4.2-1.3c-4.3,0-7,4.3-7,8.4c0,3.1,1.5,6,5.5,6c1.8,0,3.4-0.6,4.6-1.2l0.4-0.2
		l-3.5,4.5c-0.7,0.2-1.6,0.5-3.2,0.5c-5.8,0-8.3-4.6-8.3-9.3c0-5.9,3.8-12.4,11.4-12.4c1.2,0,3.1,0.2,5.1,0.9L111.4,120.3z"/>
	<path class="st39" d="M115.2,136.4h-3.9l4.7-20.6h3.9L115.2,136.4z"/>
	<path class="st39" d="M126.1,122l-3.3,14.4h-3.9l3.3-14.4H126.1z"/>
	<path class="st39" d="M145.9,136.4h-4l1.8-7.9c0.2-1,0.3-1.5,0.3-1.9c0-1.1-0.7-1.6-1.5-1.6c-0.4,0-1.3,0.2-2.2,1
		c0,0.3-0.1,0.6-0.5,2.7l-1.8,7.8h-3.9l1.8-7.9c0.2-0.8,0.3-1.5,0.3-1.9c0-1.1-0.6-1.6-1.4-1.6c-0.7,0-1.4,0.4-2.1,0.9l-2.4,10.6
		h-3.9l3.3-14.4h3.9l-0.7,3l2.5-3c0.6-0.2,1.3-0.4,2-0.4c1,0,2,0.4,2.6,1.4c0.4,0.7,0.4,1.5,0.4,2.1l2.6-3.1c0.5-0.1,1.3-0.4,2-0.4
		c1.9,0,3.1,1.3,3.1,3.3c0,0.8-0.2,1.8-0.4,2.4L145.9,136.4z"/>
	<path class="st39" d="M158.3,132.4c-0.1,0.2-0.1,0.4-0.1,0.7c-0.2,0.2-0.7,0.7-1.8,0.7c-0.9,0-2-0.4-2-2.5c0-2.2,1.3-6.6,4.4-6.6
		c0.5,0,1.1,0.2,1.2,0.2L158.3,132.4z M164.2,123.1c-0.6-0.4-2.6-1.5-5.1-1.5c-5.9,0-8.7,6-8.7,10.2c0,1.5,0.4,3.9,2.4,4.8
		c0.5,0.2,1,0.2,1.5,0.2c0.8,0,1.2-0.1,1.5-0.2l2.2-2.6c0,0.5-0.1,0.8-0.1,1.3c0,0.6,0.1,0.9,0.1,1.3h3.6c0-0.3-0.1-0.6-0.1-1
		c0-0.7,0.2-1.7,0.3-2.4L164.2,123.1z"/>
	<path class="st39" d="M170.6,130.5c-0.2,1.2-0.3,1.4-0.3,1.6c0,0.8,0.4,1.4,1.5,1.4c0.3,0,1.5-0.2,1.7-0.2c0.1,0,0.2-0.1,0.3-0.1
		l-2.6,3.2c-0.5,0.2-1,0.4-1.7,0.4c-2,0-3.3-1.5-3.3-3.4c0-0.7,0.1-1.3,0.3-1.9l1.4-6.1h-1.7l2.2-3.4h0.3l0.4-2l4.3-1.9l-0.9,3.8
		h2.6l-0.8,3.4h-2.6L170.6,130.5z"/>
	<path class="st39" d="M182.4,122l-3.3,14.4h-3.9l3.3-14.4H182.4z"/>
	<path class="st39" d="M193.3,126.1c-0.4-0.4-1.4-1.4-2.8-1.4c-1.1,0-1.7,0.7-1.7,1.5c0,0.8,0.4,1.1,1.2,1.7
		c1.2,0.9,2.3,1.8,2.3,3.8c0,2.8-2.1,5-5.3,5c-0.7,0-2.4-0.1-4.4-1.3l0.8-3.6c0.5,0.5,1.9,1.7,3.3,1.7c1.3,0,1.6-1,1.6-1.6
		c0-0.8-0.5-1.2-1.5-1.9c-1-0.7-2.1-1.6-2.1-3.6c0-1.6,0.7-2.9,1.6-3.8c1-0.8,2.2-1.1,3.4-1.1c0.8,0,1.5,0.1,2.3,0.3
		c0.8,0.2,1.4,0.6,1.8,0.8L193.3,126.1z"/>
	<path class="st39" d="M203.3,132.4c0,0.2-0.1,0.4-0.1,0.7c-0.2,0.2-0.7,0.7-1.8,0.7c-0.9,0-2-0.4-2-2.5c0-2.2,1.3-6.6,4.4-6.6
		c0.5,0,1.1,0.2,1.2,0.2L203.3,132.4z M209.2,123.1c-0.6-0.4-2.6-1.5-5.1-1.5c-5.9,0-8.7,6-8.7,10.2c0,1.5,0.4,3.9,2.4,4.8
		c0.5,0.2,1,0.2,1.5,0.2c0.8,0,1.2-0.1,1.5-0.2l2.2-2.6c-0.1,0.5-0.1,0.8-0.1,1.3c0,0.6,0.1,0.9,0.1,1.3h3.6c0-0.3-0.1-0.6-0.1-1
		c0-0.7,0.2-1.7,0.3-2.4L209.2,123.1z"/>
	<path class="st39" d="M215.6,130.5c-0.2,1.2-0.3,1.4-0.3,1.6c0,0.8,0.4,1.4,1.5,1.4c0.3,0,1.5-0.2,1.7-0.2c0.1,0,0.2-0.1,0.3-0.1
		l-2.6,3.2c-0.5,0.2-1,0.4-1.7,0.4c-2,0-3.3-1.5-3.3-3.4c0-0.7,0.2-1.3,0.3-1.9l1.4-6.1h-1.7l2.2-3.4h0.3l0.4-2l4.3-1.9l-0.9,3.8
		h2.6l-0.8,3.4h-2.6L215.6,130.5z"/>
	<path class="st39" d="M227.3,122l-3.3,14.4h-3.9l3.3-14.4H227.3z"/>
	<path class="st39" d="M234.8,133.7c-0.7,0-2-0.4-2-2.9c0-2,1-6.1,3.3-6.1c0.2,0,2,0,2,2.9C238.2,129.6,237.2,133.7,234.8,133.7z
		 M242,128.2c0-3.6-2-6.6-5.9-6.6c-1.1,0-2.6,0.2-4.2,1.5c-1.3,1.1-3.1,3.6-3.1,7.1c0,4.3,2.6,6.5,6,6.5
		C239.9,136.8,242,131.8,242,128.2z"/>
	<path class="st39" d="M246.9,122h3.9l-0.6,2.8l2.5-2.9c0.4-0.1,1.2-0.4,2.1-0.4c2.5,0,3.3,1.9,3.3,3.4c0,0.7-0.2,1.4-0.3,2.2
		l-2.1,9.2h-3.9l1.7-7.5c0.2-0.8,0.4-1.7,0.4-2.2c0-1.2-0.7-1.8-1.7-1.8c-0.5,0-1.3,0.2-2.2,0.8l-2.4,10.7h-3.9L246.9,122z"/>
	<path class="st39" d="M274.4,122l-3.3,14.4h-3.9l3.3-14.4H274.4z"/>
	<path class="st39" d="M278.1,122h3.9l-0.6,2.8l2.5-2.9c0.4-0.1,1.2-0.4,2.1-0.4c2.5,0,3.3,1.9,3.3,3.4c0,0.7-0.2,1.4-0.3,2.2
		l-2.1,9.2h-3.9l1.7-7.5c0.2-0.8,0.4-1.7,0.4-2.2c0-1.2-0.7-1.8-1.7-1.8c-0.5,0-1.3,0.2-2.2,0.8l-2.4,10.7h-3.9L278.1,122z"/>
	<path class="st39" d="M302.7,126c-0.6-0.5-1.4-1.3-2.8-1.3c-2.7,0-4,3-4,5.3c0,1.7,0.7,3.6,3.3,3.6c1.1,0,2-0.3,2.9-0.6
		c0.1-0.1,0.3-0.1,0.4-0.1l-2.8,3.6c-0.5,0.1-1,0.3-1.9,0.3c-3.6,0-5.8-2.7-5.8-6.4c0-4.1,2.6-8.8,7.6-8.8c0.7,0,2.3,0.1,4,0.9
		L302.7,126z"/>
	<polygon class="st39" points="307.6,136.8 308.3,132.9 304.4,132.9 303.7,136.8 	"/>
	<polygon class="st39" points="274.8,119.7 275.5,115.8 271.7,115.8 270.9,119.7 	"/>
	<polygon class="st39" points="227.8,119.8 228.6,115.9 224.7,115.9 223.9,119.8 	"/>
	<polygon class="st39" points="182.7,119.7 183.4,115.8 179.5,115.8 178.8,119.7 	"/>
	<polygon class="st39" points="126.7,119.7 127.4,115.8 123.6,115.8 122.8,119.7 	"/>
</g>
</svg>
